<svg width="30" height="30" viewBox="0 0 30 30" fill="none" xmlns="http://www.w3.org/2000/svg">
<circle cx="15" cy="15" r="15" fill="#FFE136"/>
<path d="M11.1975 15.3652L18.105 15.4627L18.4575 18.9802H11.1975V15.3652Z" fill="#FFA9A9"/>
<path d="M18.9826 15.5752C19.0651 16.0627 19.1176 16.6027 19.1326 17.2102C19.1551 17.8177 19.1101 18.1252 18.9976 18.7702C18.9601 18.9802 18.8626 19.1452 18.7126 19.2577C18.5626 19.3777 18.3901 19.4752 18.2026 19.5502C18.0076 19.6252 17.7526 19.6927 17.4451 19.7452C17.1376 19.7977 16.8076 19.8427 16.4701 19.8727C16.1326 19.9027 15.8026 19.9327 15.4726 19.9402C15.1426 19.9552 14.8576 19.9627 14.6176 19.9627C14.3626 19.9627 14.0551 19.9477 13.7026 19.9252C13.3501 19.9027 13.0051 19.8727 12.6601 19.8352C12.3151 19.8052 12.0001 19.7602 11.7151 19.7152C11.4301 19.6702 11.2201 19.6177 11.0851 19.5577C10.9126 19.4827 10.7476 19.3852 10.5976 19.2652C10.4476 19.1452 10.3426 18.9802 10.2901 18.7777C10.2301 18.4927 10.1851 18.1927 10.1701 17.8777C10.1476 17.5627 10.1401 17.5702 10.1476 17.2552C10.1551 16.9402 10.1776 16.6402 10.2001 16.3552C10.2301 16.0627 10.2601 15.8077 10.2901 15.5752M11.4901 16.0177C11.4676 16.0777 11.4451 16.1302 11.4376 16.1752C11.4076 16.3702 11.3851 16.5652 11.3701 16.7827C11.3551 16.9927 11.3476 17.1877 11.3476 17.4052C11.3551 17.6152 11.3551 17.6002 11.3701 17.7202C11.3926 17.9152 11.4076 18.1027 11.4376 18.2602C11.4751 18.4102 11.5426 18.5077 11.6251 18.5602C11.7376 18.6052 11.9176 18.6502 12.1726 18.6952C12.4201 18.7402 12.6976 18.7702 12.9976 18.8002C13.2976 18.8302 13.6051 18.8527 13.9126 18.8752C14.2201 18.8902 14.4826 18.9052 14.7076 18.9052C14.9551 18.9052 15.2251 18.8977 15.5176 18.8752C15.8176 18.8527 16.1026 18.8302 16.3876 18.8002C16.6651 18.7702 16.9276 18.7402 17.1526 18.7027C17.3851 18.6652 17.5501 18.6202 17.6476 18.5752C17.7151 18.5377 17.7676 18.4852 17.7976 18.4102C17.8276 18.3427 17.8726 18.2002 17.8876 18.1252C17.9626 17.6677 17.9401 17.6977 17.9551 17.2927C17.9701 16.9402 17.9101 16.5727 17.8501 16.1902C17.8426 16.1302 17.8201 16.0777 17.7976 16.0177C17.7751 15.9577 17.7001 15.9352 17.5876 15.9352" fill="black"/>
<path d="M15.9524 17.4791C16.3049 17.4791 16.5899 17.1941 16.5899 16.8416V15.6941C16.5899 15.3416 16.3049 15.0566 15.9524 15.0566C15.5999 15.0566 15.3149 15.3416 15.3149 15.6941V16.8416C15.3149 17.1941 15.5999 17.4791 15.9524 17.4791Z" fill="white"/>
<path d="M14.9549 16.332C16.2599 16.332 17.6849 16.152 19.0349 15.627C19.3724 15.4995 19.5299 15.1245 19.4024 14.7945C19.2749 14.4645 18.8999 14.307 18.5699 14.4345C15.0599 15.8145 10.7099 14.4345 10.6724 14.4195C10.3349 14.3145 9.97491 14.4945 9.86991 14.832C9.75741 15.1695 9.93741 15.5295 10.2749 15.642C10.4024 15.6795 12.4499 16.332 14.9549 16.332Z" fill="black"/>
<path d="M9.9225 13.58C10.432 13.58 10.845 13.0024 10.845 12.29C10.845 11.5776 10.432 11 9.9225 11C9.41302 11 9 11.5776 9 12.29C9 13.0024 9.41302 13.58 9.9225 13.58Z" fill="black"/>
<path d="M19.38 13.58C19.8895 13.58 20.3025 13.0024 20.3025 12.29C20.3025 11.5776 19.8895 11 19.38 11C18.8705 11 18.4575 11.5776 18.4575 12.29C18.4575 13.0024 18.8705 13.58 19.38 13.58Z" fill="black"/>
</svg>
