<svg width="13" height="15" viewBox="0 0 13 15" fill="none" xmlns="http://www.w3.org/2000/svg">
<path d="M10.3693 14.0774C9.84635 14.0774 9.11173 13.8694 8.01169 13.1933C6.674 12.3681 5.63933 11.6063 4.30888 10.1467C3.02611 8.73652 2.40188 7.82353 1.52822 6.07476C0.541232 4.10025 0.709481 3.06525 0.897555 2.62291C1.12153 2.09421 1.45213 1.77799 1.87945 1.46413C2.12217 1.28921 2.37902 1.13926 2.64675 1.01618C2.67354 1.00351 2.69846 0.991429 2.7207 0.980525C2.85331 0.914806 3.05425 0.815491 3.30876 0.921584C3.47862 0.991724 3.63026 1.13524 3.86763 1.39311C4.35442 1.92122 5.01965 3.09738 5.26505 3.675C5.42982 4.0643 5.53886 4.32128 5.53913 4.6095C5.53913 4.94693 5.38481 5.20716 5.19754 5.48801C5.16244 5.54076 5.12762 5.59115 5.09386 5.64008C4.88998 5.93478 4.84524 6.01995 4.87471 6.17201C4.93445 6.47762 5.37999 7.38737 6.11219 8.19103C6.8444 8.99468 7.6476 9.45383 7.92649 9.51925C8.07063 9.55314 8.14966 9.50187 8.42615 9.26964C8.4658 9.23634 8.50652 9.20186 8.54912 9.16738C8.83471 8.93368 9.06029 8.76835 9.35982 8.76835H9.36143C9.62211 8.76835 9.84528 8.89271 10.215 9.09783C10.6972 9.36542 11.7986 10.0877 12.2817 10.6238C12.5166 10.8843 12.6476 11.0505 12.7117 11.2371C12.8081 11.5179 12.7173 11.7381 12.6581 11.8854C12.6482 11.9099 12.6372 11.9367 12.6257 11.9665C12.5129 12.2604 12.3758 12.5424 12.216 12.8087C11.9312 13.2773 11.6427 13.6401 11.161 13.8868C10.9136 14.0155 10.6429 14.0807 10.3693 14.0774Z" fill="#999999"/>
</svg>
