<svg width="32" height="19" viewBox="0 0 32 19" fill="none" xmlns="http://www.w3.org/2000/svg">
<path d="M30.4597 4.3916C30.7339 5.99734 30.9101 7.81848 30.9688 9.83544C31.0276 11.8524 30.8905 12.8707 30.5185 15.0247C30.3814 15.7101 30.0681 16.2584 29.5785 16.65C29.089 17.0417 28.5211 17.3746 27.8749 17.6096C27.2287 17.8641 26.3866 18.0795 25.3488 18.2558C24.3109 18.432 23.2339 18.5691 22.1177 18.6866C21.0015 18.8041 19.8854 18.8824 18.8083 18.9216C17.7117 18.9803 16.7718 18.9999 15.9493 18.9999C15.1073 18.9999 14.089 18.9607 12.9141 18.8824C11.7392 18.8041 10.5838 18.7062 9.44807 18.5691C8.31231 18.4516 7.25487 18.2949 6.31493 18.1383C5.37499 17.9816 4.67003 17.8054 4.21964 17.6096C3.63218 17.355 3.10346 17.0417 2.59432 16.65C2.08519 16.2584 1.75229 15.7101 1.57605 15.0247C1.38023 14.0848 1.24315 13.0861 1.16483 12.0482C1.04733 10.9908 1.02775 11.0299 1.06691 9.97251C1.10608 8.93466 1.16483 7.93597 1.24315 6.97645C1.32148 6.01692 1.41939 5.15531 1.5173 4.3916M5.53164 5.86026C5.45331 6.05608 5.39457 6.23232 5.35541 6.38898C5.25749 7.01561 5.17917 7.6814 5.12042 8.40594C5.06167 9.1109 5.04209 9.75711 5.06167 10.4816C5.08125 11.1866 5.08126 11.1279 5.12042 11.5391C5.19875 12.2049 5.25749 12.8119 5.35541 13.3406C5.49248 13.8498 5.6883 14.1827 5.96245 14.3393C6.33451 14.496 6.94156 14.6526 7.76401 14.7897C8.60604 14.9268 9.50682 15.0443 10.5251 15.1422C11.5238 15.2401 12.5421 15.3184 13.5603 15.3772C14.5786 15.4359 15.4598 15.4751 16.2039 15.4751C17.0264 15.4751 17.9271 15.4359 18.9062 15.3772C19.8854 15.3184 20.8449 15.2401 21.7848 15.1422C22.7248 15.0443 23.5668 14.9464 24.3305 14.8093C25.0942 14.6918 25.6425 14.5352 25.995 14.3785C26.23 14.261 26.4062 14.0652 26.5041 13.8302C26.602 13.5952 26.7587 13.1252 26.7979 12.8707C27.0328 11.3628 26.9741 11.4608 27.0133 10.1096C27.0524 8.93466 26.8566 7.70098 26.6608 6.44773C26.6216 6.25191 26.5629 6.07567 26.4845 5.87984C26.4062 5.68402 26.1712 5.60569 25.7992 5.60569" fill="#FFE136"/>
<path d="M20.3749 10.7173C21.5499 10.7173 22.5094 9.75778 22.5094 8.58285V4.76434C22.5094 3.58941 21.5499 2.62988 20.3749 2.62988C19.2 2.62988 18.2405 3.58941 18.2405 4.76434V8.58285C18.2601 9.75778 19.2 10.7173 20.3749 10.7173Z" fill="#FFE136"/>
<path d="M17.0656 6.91817C21.4129 6.91817 26.1713 6.33071 30.6557 4.56832C31.7523 4.13751 32.281 2.90384 31.8502 1.80724C31.4194 0.710635 30.1857 0.181918 29.0891 0.612725C17.3985 5.21453 2.94692 0.612724 2.79026 0.57356C1.67408 0.221081 0.459987 0.828127 0.107508 1.94431C-0.264552 3.06049 0.362076 4.255 1.47826 4.62706C1.90907 4.72497 8.72365 6.91817 17.0656 6.91817Z" fill="#FFE136"/>
</svg>
